<svg viewBox="0 0 600 600" xmlns="http://www.w3.org/2000/svg"><defs><linearGradient x1="36.355%" y1="8.556%" x2="69.375%" y2="88.309%" id="a"><stop stop-color="#192647" offset="0%"/><stop stop-color="#192647" stop-opacity=".5" offset="0%"/><stop stop-color="#192647" stop-opacity="0" offset="100%"/></linearGradient><linearGradient x1="100%" y1="49.999%" x2="0%" y2="49.999%" id="b"><stop stop-color="#003267" stop-opacity=".6" offset="1%"/><stop stop-color="#003267" stop-opacity="0" offset="100%"/></linearGradient></defs><g fill="none" fill-rule="evenodd"><path d="M0 0h600v600H0z"/><g fill-rule="nonzero"><path d="M450.009 149.999a17.056 17.056 0 00-2.793-.774 198.467 198.467 0 01-13.296-2.852 286.254 286.254 0 01-31.985-9.78 141.083 141.083 0 01-6.153-2.417c-48.847-19.244-89.196-49.307-115.62-72.528-.751-.66-1.56-1.25-2.418-1.764a16.222 16.222 0 00-8.208-2.26h-.06c-2.932.03-5.8.861-8.292 2.405a16.512 16.512 0 00-2.418 1.765 452.946 452.946 0 01-49.403 37.702 334.248 334.248 0 01-9.985 6.358 373.573 373.573 0 01-15.799 9.247 342.233 342.233 0 01-40.434 19.16 298.24 298.24 0 01-12.39 4.58 304.991 304.991 0 01-12.717 4.062 267.24 267.24 0 01-26.363 6.347 16.536 16.536 0 00-9.598 5.584 16.173 16.173 0 00-3.784 10.396v128.095c0 2.08 0 4.159.073 6.226v1.208c0 1.753.097 3.506.181 5.247v.81c.097 1.91.206 3.82.339 5.73v.301a271.229 271.229 0 005.584 39.19c0 .12 0 .229.085.35.314 1.45.64 2.901.991 4.352.017.123.045.244.085.362a270.004 270.004 0 006.322 22.049c.084.265.169.531.266.81l1.208 3.626c.146.41.278.81.436 1.209.399 1.136.81 2.26 1.208 3.384l.508 1.342c.423 1.112.846 2.224 1.281 3.324.158.423.339.834.496 1.209a259.689 259.689 0 004.666 10.88l.604 1.34c.423.92.859 1.826 1.294 2.733.302.652.604 1.293.918 1.946.411.846.835 1.692 1.21 2.538.374.846.7 1.415 1.063 2.116.363.7.822 1.607 1.209 2.417.387.81.785 1.487 1.209 2.237.423.749.81 1.523 1.208 2.272.4.75.907 1.62 1.354 2.418.447.797.762 1.378 1.209 2.055.653 1.208 1.33 2.308 2.007 3.457l1.208 1.982a186.843 186.843 0 002.031 3.312l1.088 1.705c.572.91 1.152 1.817 1.74 2.72l1.21 1.788c.58.87 1.208 1.741 1.752 2.6l1.21 1.776 1.849 2.635 1.208 1.669c.69.955 1.39 1.897 2.092 2.852l1.027 1.378a212.728 212.728 0 003.203 4.183 258.569 258.569 0 0016.537 19.207 262.139 262.139 0 0041.957 35.636 255.301 255.301 0 006.83 4.484l3.154 1.97a259.2 259.2 0 0015.606 8.885 253.392 253.392 0 0013.405 6.515 275.319 275.319 0 009.115 3.905 249.853 249.853 0 0023.426 8.123 15.92 15.92 0 008.836 0 251.912 251.912 0 0050.322-20.888 255.816 255.816 0 008.631-4.944 260.87 260.87 0 0054.601-43.686 264.803 264.803 0 0016.536-19.147 212.728 212.728 0 003.204-4.182l1.027-1.378c.701-.955 1.402-1.898 2.091-2.853l1.21-1.668c.628-.87 1.208-1.753 1.86-2.635l1.21-1.777c.592-.858 1.208-1.729 1.752-2.6l1.209-1.788c.592-.907 1.209-1.813 1.74-2.72l1.089-1.704c.689-1.1 1.365-2.224 2.042-3.337.387-.64.774-1.28 1.149-1.922.689-1.208 1.378-2.32 2.043-3.493.398-.677.773-1.366 1.208-2.055l1.354-2.417a82.37 82.37 0 001.209-2.273c.387-.762.798-1.487 1.209-2.236a40.96 40.96 0 001.209-2.418l1.063-2.115c.423-.846.834-1.693 1.21-2.539l.93-1.946c.435-.906.87-1.813 1.293-2.732l.617-1.366a324.108 324.108 0 004.642-10.879l.507-1.209c.435-1.1.858-2.212 1.282-3.324l.507-1.342a86.815 86.815 0 001.209-3.384l.435-1.209c.423-1.209.834-2.417 1.209-3.626l.278-.822a256.15 256.15 0 006.262-22.012c0-.133.072-.254.096-.387.339-1.439.677-2.877.991-4.328a.58.58 0 01.085-.362 271.229 271.229 0 005.585-39.19v-.301c.133-1.91.241-3.82.338-5.73v-.81c.073-1.74.133-3.493.181-5.246v-1.209c0-2.067.073-4.146.073-6.225v-128.18c0-6.75-4.172-12.796-10.48-15.195z" fill="url(#a)" transform="translate(102.124 50.41)"/><path d="M115.505 141.868a16.307 16.307 0 00-13.38 15.98V285.98c0 61.02 19.618 118.329 56.728 165.725a257.69 257.69 0 00130.03 88.653c2.884.845 5.95.845 8.836 0a257.871 257.871 0 00130.03-88.653C464.845 404.31 484.464 347 484.464 285.98V157.848a16.307 16.307 0 00-13.442-15.98c-71.875-13.381-131.891-56.547-167.103-87.432a16.198 16.198 0 00-21.372 0c-35.284 30.885-95.228 74.05-167.043 87.432z" fill="#0065AA"/><path d="M293.198 50.411a16.184 16.184 0 00-10.686 4.025c-35.248 30.885-95.192 74.05-167.007 87.432a16.307 16.307 0 00-13.38 15.98V285.98c0 8.639.402 17.197 1.208 25.675h189.865V50.41z" fill="#004486"/><path d="M103.26 311.715a264.98 264.98 0 0055.532 140.05 257.69 257.69 0 00130.03 88.654c1.432.424 2.918.64 4.412.64V311.715H103.26zm381.144-25.675V157.91a16.306 16.306 0 00-13.38-16.04c-71.877-13.384-131.893-56.55-167.104-87.435a16.138 16.138 0 00-10.722-4.025v261.304h190.01c.79-8.47 1.188-17.027 1.196-25.674z" fill="#0065AA"/><path d="M293.198 311.715V541.06c1.498 0 2.987-.217 4.424-.64a257.871 257.871 0 00130.03-88.653 264.967 264.967 0 0055.52-140.05H293.197z" fill="#004486"/><path d="M368.96 91.457c-29.398-5.488-56.814-15.944-81.352-28.515L89.293 435.962a255.309 255.309 0 0097.465 54.07 15.72 15.72 0 008.837 0 257.871 257.871 0 00130.03-88.653c37.097-47.396 56.716-104.705 56.716-165.725V107.522a16.332 16.332 0 00-13.382-16.065z" fill="url(#b)" transform="translate(102.124 50.41)"/><path d="M289.076 199.129l-97.006 169.23a4.835 4.835 0 004.219 7.253H390.3a4.835 4.835 0 004.219-7.253l-97.006-169.23a4.835 4.835 0 00-6.551-1.886 4.714 4.714 0 00-1.886 1.886z" fill="#ED003E"/><path d="M292.593 320.576a6.938 6.938 0 01-6.914-6.963v-47.24a6.939 6.939 0 0113.853-.58v47.76a6.95 6.95 0 01-6.939 6.974v.049zm.012 26.037a6.95 6.95 0 01-4.907-2.043 7.108 7.108 0 01-.846-1.063 6.419 6.419 0 01-.641-1.21 6.262 6.262 0 01-.399-1.305 7.362 7.362 0 01-.12-1.366 6.914 6.914 0 016.89-6.962 6.902 6.902 0 014.895 2.043 6.975 6.975 0 01-4.896 11.906h.024z" fill="#FFF"/></g></g></svg>